<?xml version="1.0" standalone="no"?>
<!DOCTYPE svg PUBLIC "-//W3C//DTD SVG 20010904//EN"
 "http://www.w3.org/TR/2001/REC-SVG-20010904/DTD/svg10.dtd">
<svg version="1.0" xmlns="http://www.w3.org/2000/svg"
 width="1600.000000pt" height="1600.000000pt" viewBox="0 0 1600.000000 1600.000000"
 preserveAspectRatio="xMidYMid meet">
<metadata>
Created by potrace 1.14, written by Peter Selinger 2001-2017
</metadata>
<g transform="translate(0.000000,1600.000000) scale(0.100000,-0.100000)"
fill="#000000" stroke="none">
<path d="M9170 8523 c-93 -9 -243 -37 -311 -59 -96 -30 -151 -83 -168 -162
-19 -92 27 -202 113 -264 46 -33 77 -35 137 -9 160 70 578 82 1004 30 262 -32
508 -91 691 -167 206 -86 356 -206 436 -349 34 -62 42 -71 58 -63 22 12 47 64
55 116 5 29 0 61 -19 120 -102 315 -422 567 -876 692 -305 84 -609 124 -924
120 -89 0 -177 -3 -196 -5z"/>
<path d="M6450 8070 c-550 -40 -951 -153 -1246 -350 -145 -97 -310 -279 -358
-394 -39 -94 0 -205 46 -128 44 72 174 180 286 236 313 158 704 229 1257 230
318 0 452 -12 587 -54 55 -17 65 -17 96 -5 73 31 148 103 187 179 39 77 28
162 -26 200 -92 64 -518 108 -829 86z"/>
<path d="M6111 6856 c-144 -37 -310 -151 -390 -269 -91 -135 -126 -269 -118
-461 9 -239 94 -427 262 -584 90 -84 176 -135 285 -170 116 -37 279 -38 385
-4 163 54 308 174 383 318 232 448 23 1003 -433 1150 -99 32 -287 42 -374 20z
m348 -206 c232 -124 222 -431 -16 -520 -175 -66 -376 37 -429 218 -30 104 -2
197 82 271 63 55 118 72 220 67 69 -3 91 -9 143 -36z"/>
<path d="M9665 6804 c-179 -43 -268 -89 -389 -203 -255 -241 -325 -616 -176
-938 164 -353 532 -486 894 -323 99 44 175 100 262 193 91 98 153 199 196 324
27 76 32 106 36 217 6 159 -5 210 -68 341 -55 114 -120 193 -213 259 -136 96
-229 127 -397 132 -69 1 -134 1 -145 -2z m207 -196 c144 -51 220 -197 173
-337 -21 -65 -100 -153 -169 -189 -46 -24 -62 -27 -151 -27 -85 0 -106 3 -143
23 -171 91 -203 309 -65 444 101 97 232 129 355 86z"/>
<path d="M11041 5309 c-35 -4 -72 -16 -82 -25 -35 -31 -23 -50 55 -89 41 -20
89 -49 107 -64 l32 -28 -48 -69 c-166 -234 -361 -459 -630 -727 -261 -260
-367 -348 -650 -539 -343 -231 -581 -368 -792 -454 -49 -19 -102 -42 -120 -50
-70 -32 -304 -104 -398 -123 -221 -45 -601 -51 -920 -16 -71 8 -204 20 -295
26 -153 11 -169 10 -220 -7 -69 -24 -88 -55 -67 -106 17 -41 72 -72 224 -128
340 -124 753 -183 1055 -150 324 35 683 129 979 255 44 19 86 35 92 35 14 0
143 -94 195 -143 115 -105 256 -278 376 -462 195 -298 311 -403 498 -451 90
-24 280 -14 407 21 461 125 841 431 1054 847 57 110 109 260 128 368 15 87 15
280 0 366 -51 282 -220 499 -498 638 -98 49 -275 118 -408 157 -60 18 -112 34
-114 35 -7 5 294 453 305 453 6 1 14 -13 18 -30 3 -18 22 -47 42 -65 28 -27
44 -34 76 -34 53 0 111 33 145 84 26 37 28 49 27 126 -1 68 -6 96 -27 141 -30
68 -85 131 -143 165 -81 48 -238 65 -403 43z"/>
</g>
</svg>
